<svg width="427" height="76" viewBox="0 0 427 76" class="css-1j8o68f">
    <defs id="SvgjsDefs4595"></defs>
    <g id="SvgjsG4596" featurekey="rootContainer" transform="matrix(1,0,0,1,0,0)" fill="#a0e735">
        <rect xmlns="http://www.w3.org/2000/svg" width="427" height="76" rx="10" ry="10"></rect>
    </g>
    <g id="SvgjsG4597" featurekey="nameLeftFeature-0" transform="matrix(0.8008657453335125,0,0,0.8008657453335125,18.174026123552544,15.73073473460014)" fill="#40514e">
        <path d="M2.28 15.52 l18.2 0 l0 5.56 l-12.2 0 l0 3.92 l9.8 0 l0 5.56 l-9.8 0 l0 9.44 l-6 0 l0 -24.48 z M35.597 34.64 c4.36 0 6.6 -2.8 6.6 -6.88 c0 -4.32 -2.4 -6.88 -6.6 -6.88 c-4.4 0 -6.6 2.8 -6.6 6.88 c0 4.24 2.44 6.88 6.6 6.88 z M35.597 40.2 c-7.52 0 -12.6 -5.12 -12.6 -12.44 c0 -7.56 5.32 -12.44 12.6 -12.44 c7.56 0 12.6 5.08 12.6 12.44 c0 7.6 -5.28 12.44 -12.6 12.44 z M64.474 34.64 c4.36 0 6.6 -2.8 6.6 -6.88 c0 -4.32 -2.4 -6.88 -6.6 -6.88 c-4.4 0 -6.6 2.8 -6.6 6.88 c0 4.24 2.44 6.88 6.6 6.88 z M64.474 40.2 c-7.52 0 -12.6 -5.12 -12.6 -12.44 c0 -7.56 5.32 -12.44 12.6 -12.44 c7.56 0 12.6 5.08 12.6 12.44 c0 7.6 -5.28 12.44 -12.6 12.44 z M80.15100000000001 15.52 l20.4 0 l0 5.56 l-7.2 0 l0 18.92 l-6 0 l0 -18.92 l-7.2 0 l0 -5.56 z M122.50800000000001 27.439999999999998 c1.76 1.24 2.8 3.08 2.8 5.24 c0 4.16 -3.84 7.32 -7.84 7.32 l-13 0 l0 -24.48 l12.2 0 c3.2 0 5.84 1.72 7.24 4.56 c0.4 0.92 0.6 1.84 0.6 2.8 c0 1.8 -0.72 3.28 -2 4.56 z M110.46800000000002 21.08 l0 3.92 l6.2 0 c1.04 0 1.84 -1 1.84 -2 c0 -1.04 -0.76 -1.92 -1.84 -1.92 l-6.2 0 z M110.46800000000002 30.560000000000002 l0 3.88 l7 0 c1.08 0 1.84 -0.88 1.84 -1.92 c0 -0.52 -0.2 -1 -0.56 -1.4 c-0.36 -0.36 -0.8 -0.56 -1.28 -0.56 l-7 0 z M144.38500000000002 35.04 l-9 0 l-1.76 4.96 l-6.52 0 l9.8 -24.48 l6 0 l9.8 24.48 l-6.56 0 z M137.34500000000003 29.48 l5.08 0 l-2.52 -7.12 z M174.14200000000002 34.44 l0 5.56 l-18.2 0 l0 -24.48 l6 0 l0 18.92 l12.2 0 z M196.17900000000003 34.44 l0 5.56 l-18.2 0 l0 -24.48 l6 0 l0 18.92 l12.2 0 z"></path>
    </g>
    <g id="SvgjsG4598" featurekey="inlineSymbolFeature-0" transform="matrix(0.35898992944107866,0,0,0.35898992944107866,182.07636254012118,8.479295523997504)" fill="#40514e">
        <g xmlns="http://www.w3.org/2000/svg">
            <path fill-rule="evenodd" clip-rule="evenodd" d="M80.077,104.504c-14.665,0-26.987-10.026-30.488-23.597   c-5.385,0.516-9.583,1.03-11.809,1.319C45.144,108.669,73.237,132,80.623,132c8.628,0,35.025-23.181,41.885-49.756   c-2.192-0.284-6.451-0.807-11.945-1.332C107.061,94.48,94.74,104.504,80.077,104.504z">
            </path>
            <path fill-rule="evenodd" clip-rule="evenodd" d="M59.813,87.979c3.065,4.144,7.259,7.211,12.126,8.871   c2.605,0.889,5.319,1.343,8.065,1.35c2.754,0.009,5.489-0.41,8.101-1.287c1.597-0.534,3.158-1.212,4.617-2.058l0,0   c2.984-1.731,5.526-4.039,7.585-6.811c3.099-4.17,4.798-9.14,4.933-14.351l0.002-0.207c0.005-0.131,0.007-0.264,0.008-0.396   c0.015-5.116-1.502-10.05-4.383-14.264c-3.107-4.547-7.69-7.997-12.901-9.717c-2.532-0.834-5.165-1.261-7.828-1.267   c-2.75-0.008-5.47,0.433-8.081,1.31c-5.102,1.712-9.66,5.148-12.724,9.589c-2.893,4.193-4.428,9.107-4.442,14.213   c0,0.116,0.002,0.232,0.006,0.347l0.005,0.179C54.995,78.747,56.694,83.761,59.813,87.979z M101.132,72.308   c0.555,1.079,1.248,2.564,1.3,3.784c-0.001-0.021,0.575-0.404,0.635-0.458c0.022-0.021,0.043-0.038,0.065-0.061   c0.074-0.068,0.152-0.142,0.238-0.228c0.013-0.014,0.026-0.027,0.04-0.04c0.062-0.062,0.125-0.13,0.191-0.199   c-0.346,3.977-1.678,7.668-3.755,10.831c-0.043-0.3-0.076-0.607-0.18-0.889c-0.18-0.499-0.298-0.425-0.671-0.123   c-0.857,0.698-1.936,1.053-2.956,1.437c-1.687,0.634-3.474,0.99-5.271,1.084l-4.991-6.441l3.408-10.231c0,0,8.366-2.68,8.367-2.678   C99.051,69.204,100.276,70.651,101.132,72.308z M80.39,54.729c0.331-0.234,0.677-0.458,1.024-0.66   c0.95-0.552,1.969-0.984,3.025-1.288c1.01-0.29,2.006-0.26,3.03-0.434c0.6-0.103,1.237-0.097,1.824-0.233   c-0.04-0.118-0.09-0.241-0.147-0.356c-0.008-0.019-0.015-0.035-0.024-0.056c-0.02-0.045-0.044-0.097-0.072-0.152   c-0.011-0.021-0.017-0.038-0.027-0.059c-0.038-0.077-0.081-0.163-0.13-0.256c-0.004-0.006,0.002-0.018,0.004-0.028   c3.896,1.557,7.276,4.125,9.819,7.38c-0.084-0.015-0.169-0.029-0.247-0.041c-0.012-0.001-0.027-0.004-0.039-0.006   c-0.114-0.016-0.217-0.027-0.312-0.036c-0.168-0.015-0.622-0.113-0.73,0.067c-0.144,0.234,0.165,0.727,0.204,0.965   c0.044,0.264,0.057,0.535,0.106,0.803c0.118,0.627,0.192,1.262,0.229,1.898c0.048,0.814,0.033,1.633-0.035,2.445   c-0.041,0.471-0.102,0.942-0.18,1.409c-0.032,0.187-0.169,1.468-0.32,1.516l-8.364,2.662l-8.662-6.333L80.39,54.729z    M85.237,81.198l5.052,6.52c-0.742,1.993-1.955,3.801-3.523,5.239c-0.479,0.438-0.988,0.843-1.529,1.199   c-0.146,0.097-0.361,0.179-0.486,0.301c-0.639,0.627,0.783,1.149,1.129,1.312c0.025,0.012,0.053,0.022,0.078,0.034   c0.023,0.01,0.051,0.02,0.074,0.029c-1.873,0.48-3.834,0.736-5.855,0.736c-2.172,0-4.219-0.275-6.134-0.774   c0.023-0.009,0.048-0.02,0.07-0.029c0.011-0.006,0.022-0.011,0.034-0.016c0.408-0.176,0.856-0.331,1.2-0.622   c0.354-0.298,0.419-0.431,0.041-0.655c-0.391-0.231-0.767-0.48-1.127-0.756c-1.523-1.166-2.788-2.67-3.687-4.36   c-0.101-0.189-0.806-1.368-0.695-1.528c0.025-0.035,4.655-6.66,4.655-6.66L85.237,81.198z M71.247,51.288   c-0.029,0.069-0.058,0.137-0.082,0.197c-0.007,0.018-0.012,0.034-0.019,0.051c-0.021,0.057-0.041,0.108-0.056,0.152   c-0.007,0.019-0.012,0.033-0.017,0.049c-0.015,0.041-0.026,0.074-0.034,0.101c-0.055,0.156-0.112,0.314-0.166,0.466   c0.267,0.085,0.596-0.029,0.88-0.009c0.98,0.065,1.903,0.095,2.879,0.315c1.839,0.415,3.601,1.149,5.211,2.125l-0.026,9.202   l-8.577,6.197l-8.394-2.503c-0.18-0.053-0.334-1.585-0.368-1.798c-0.225-1.474-0.253-3.272-0.358-4.771   c-0.069-0.987,0.472-2.555-0.334-2.507c-0.043,0.002-0.089,0.005-0.134,0.007C64.15,55.376,67.447,52.849,71.247,51.288z    M56.77,75.198c0.089,0.09,0.171,0.169,0.248,0.24c0.246,0.226,0.474,0.526,0.815,0.614c0.212-0.553,0.241-1.197,0.441-1.769   c0.219-0.627,0.489-1.235,0.8-1.82c0.408-0.766,0.89-1.493,1.438-2.167c0.309-0.379,0.638-0.742,0.986-1.086   c0.148-0.146,1.017-1.106,1.199-1.053c0.002,0.001,8.289,2.471,8.289,2.471l3.231,10.038c0,0-4.708,6.732-4.709,6.735   c-0.096,0.136-1.408-0.123-1.604-0.149c-0.51-0.069-1.016-0.162-1.517-0.275c-0.837-0.19-1.661-0.442-2.459-0.758   c-0.601-0.236-1.187-0.51-1.752-0.821c-0.207-0.114-0.407-0.237-0.609-0.359c-0.298-0.181-0.515-0.498-0.827-0.64   c-0.285-0.131-0.254-0.062-0.344,0.238c-0.086,0.288-0.109,0.59-0.123,0.892c-1.959-3.166-3.167-6.741-3.513-10.344   C56.763,75.19,56.767,75.194,56.77,75.198z">
            </path>
            <path fill-rule="evenodd" clip-rule="evenodd" d="M79.898,32.092L36,44.686v22.039c0,0,5.405-0.777,13.536-1.56   c3.419-13.688,15.794-23.829,30.542-23.829c14.753,0,27.132,10.149,30.546,23.846c8.126,0.776,13.531,1.542,13.531,1.542V44.686   L79.898,32.092z"></path></g></g><g id="SvgjsG4599" featurekey="nameRightFeature-0" transform="matrix(0.7735068281003676,0,0,0.7735068281003676,236.5290375604859,16.985264420239616)" fill="#40514e"><path d="M14.057 40 c-0.28 0 -0.52 -0.24 -0.52 -0.52 l0 -23.96 c0 -0.28 0.24 -0.52 0.52 -0.52 l5.2 0 c0.28 0 0.52 0.24 0.52 0.52 l0 7.08 l7.24 -7.44 c0.12 -0.08 0.24 -0.16 0.4 -0.16 l6.04 0 c0.2 0 0.4 0.12 0.48 0.28 c0.08 0.2 0.04 0.4 -0.08 0.56 l-8.08 8.64 l9 14.68 c0.08 0.08 0.12 0.2 0.12 0.32 c0 0.28 -0.24 0.52 -0.52 0.52 l-6.24 0 c-0.16 0 -0.32 -0.08 -0.4 -0.24 l-6.6 -11.16 l-1.36 1.2 l0 9.68 c0 0.28 -0.24 0.52 -0.52 0.52 l-5.2 0 z  M40.154 40 c-0.28 0 -0.52 -0.24 -0.52 -0.52 l0 -23.96 c0 -0.28 0.24 -0.52 0.52 -0.52 l4.72 0 c0.16 0 0.32 0.08 0.44 0.2 l9.2 14.2 l0 -13.88 c0 -0.28 0.24 -0.52 0.52 -0.52 l4.92 0 c0.28 0 0.52 0.24 0.52 0.52 l0 23.96 c0 0.28 -0.24 0.52 -0.52 0.52 l-4.72 0 c-0.16 0 -0.32 -0.08 -0.44 -0.2 l-9.16 -14.12 l0 13.8 c0 0.28 -0.24 0.52 -0.52 0.52 l-4.96 0 z M78.091 40 c-2.4 0 -4.6 -0.56 -6.52 -1.68 c-1.96 -1.12 -3.52 -2.72 -4.68 -4.64 c-1.12 -1.96 -1.68 -4.2 -1.68 -6.6 c0 -2.36 0.56 -4.56 1.68 -6.52 c1.16 -1.96 2.68 -3.52 4.64 -4.64 s4.16 -1.68 6.56 -1.68 c2.36 0 4.56 0.56 6.52 1.68 s3.52 2.68 4.64 4.64 c1.16 1.96 1.72 4.16 1.72 6.52 c0 2.4 -0.56 4.6 -1.72 6.56 c-1.12 1.96 -2.68 3.52 -4.64 4.68 c-1.96 1.12 -4.16 1.68 -6.52 1.68 z M78.17099999999999 34.24 c1.16 0 2.24 -0.32 3.2 -0.92 c1 -0.64 1.8 -1.48 2.36 -2.6 c0.6 -1.08 0.88 -2.32 0.88 -3.64 c0 -1.28 -0.28 -2.52 -0.88 -3.6 c-0.56 -1.08 -1.36 -1.92 -2.36 -2.56 c-0.96 -0.6 -2.04 -0.92 -3.2 -0.92 c-1.2 0 -2.28 0.32 -3.28 0.92 c-1.04 0.64 -1.84 1.48 -2.44 2.56 c-0.6 1.12 -0.88 2.32 -0.88 3.6 c0 1.32 0.28 2.56 0.88 3.64 c0.64 1.08 1.44 1.96 2.44 2.56 c1 0.64 2.08 0.96 3.28 0.96 z M108.30799999999999 40 c-2.36 0 -4.52 -0.56 -6.44 -1.68 c-1.92 -1.16 -3.44 -2.72 -4.52 -4.68 s-1.64 -4.16 -1.64 -6.6 c0 -2.36 0.56 -4.56 1.68 -6.52 c1.12 -1.92 2.68 -3.48 4.6 -4.6 c1.96 -1.12 4.16 -1.68 6.48 -1.68 c1.76 0 3.48 0.4 5.16 1.12 c1.68 0.76 3.12 1.76 4.32 3.04 c0.16 0.2 0.16 0.48 0 0.68 l-3.8 3.12 c-0.12 0.12 -0.24 0.2 -0.4 0.2 s-0.32 -0.08 -0.4 -0.2 c-2.04 -2.48 -5.32 -3 -8.08 -1.28 c-2.4 1.48 -3.28 4.2 -3.16 6.92 c0.12 2.76 2.12 5.12 4.76 5.92 c2.4 0.72 4.76 0.16 6.48 -1.68 c0.12 -0.08 0.24 -0.16 0.4 -0.12 c0.16 0 0.28 0.04 0.36 0.16 l3.88 2.72 c0.16 0.2 0.16 0.48 0 0.68 c-1.28 1.36 -2.8 2.48 -4.48 3.28 c-1.72 0.8 -3.48 1.2 -5.2 1.2 z M123.365 40 c-0.28 0 -0.52 -0.24 -0.52 -0.52 l0 -23.96 c0 -0.28 0.24 -0.52 0.52 -0.52 l5.2 0 c0.28 0 0.52 0.24 0.52 0.52 l0 7.08 l7.24 -7.44 c0.12 -0.08 0.24 -0.16 0.4 -0.16 l6.04 0 c0.2 0 0.4 0.12 0.48 0.28 c0.08 0.2 0.04 0.4 -0.08 0.56 l-8.08 8.64 l9 14.68 c0.08 0.08 0.12 0.2 0.12 0.32 c0 0.28 -0.24 0.52 -0.52 0.52 l-6.24 0 c-0.16 0 -0.32 -0.08 -0.4 -0.24 l-6.6 -11.16 l-1.36 1.2 l0 9.68 c0 0.28 -0.24 0.52 -0.52 0.52 l-5.2 0 z  M158.622 40 c-2.4 0 -4.6 -0.56 -6.52 -1.68 c-1.96 -1.12 -3.52 -2.72 -4.68 -4.64 c-1.12 -1.96 -1.68 -4.2 -1.68 -6.6 c0 -2.36 0.56 -4.56 1.68 -6.52 c1.16 -1.96 2.68 -3.52 4.64 -4.64 s4.16 -1.68 6.56 -1.68 c2.36 0 4.56 0.56 6.52 1.68 s3.52 2.68 4.64 4.64 c1.16 1.96 1.72 4.16 1.72 6.52 c0 2.4 -0.56 4.6 -1.72 6.56 c-1.12 1.96 -2.68 3.52 -4.64 4.68 c-1.96 1.12 -4.16 1.68 -6.52 1.68 z M158.70200000000003 34.24 c1.16 0 2.24 -0.32 3.2 -0.92 c1 -0.64 1.8 -1.48 2.36 -2.6 c0.6 -1.08 0.88 -2.32 0.88 -3.64 c0 -1.28 -0.28 -2.52 -0.88 -3.6 c-0.56 -1.08 -1.36 -1.92 -2.36 -2.56 c-0.96 -0.6 -2.04 -0.92 -3.2 -0.92 c-1.2 0 -2.28 0.32 -3.28 0.92 c-1.04 0.64 -1.84 1.48 -2.44 2.56 c-0.6 1.12 -0.88 2.32 -0.88 3.6 c0 1.32 0.28 2.56 0.88 3.64 c0.64 1.08 1.44 1.96 2.44 2.56 c1 0.64 2.08 0.96 3.28 0.96 z M186.67900000000003 40 c-2.16 0 -3.72 -0.44 -5.36 -1.32 c-1.6 -0.88 -2.88 -2.12 -3.76 -3.76 c-0.88 -1.6 -1.32 -3.52 -1.32 -5.72 l0 -14.08 c0 -0.28 0.24 -0.48 0.52 -0.48 l5.2 0 c0.28 0 0.48 0.2 0.48 0.48 l0 14.08 c0 1.6 0.44 2.84 1.28 3.72 s1.6 1.32 3 1.32 s2.12 -0.44 2.92 -1.28 c0.8 -0.88 1.2 -2.16 1.2 -3.76 l0 -14.08 c0 -0.28 0.24 -0.48 0.52 -0.48 l5.2 0 c0.28 0 0.52 0.2 0.52 0.48 l0 14.08 c0 2.2 -0.44 4.12 -1.32 5.72 c-0.84 1.64 -2.12 2.88 -3.72 3.76 s-3.2 1.32 -5.36 1.32 z M208.29600000000002 40 c-0.28 0 -0.48 -0.24 -0.48 -0.52 l0 -18.88 l-5.48 0 c-0.28 0 -0.52 -0.2 -0.52 -0.48 l0 -4.6 c0 -0.28 0.24 -0.52 0.52 -0.52 l17.16 0 c0.32 0 0.52 0.24 0.52 0.52 l0 4.6 c0 0.28 -0.2 0.48 -0.52 0.48 l-5.48 0 l0 18.88 c0 0.28 -0.24 0.52 -0.52 0.52 l-5.2 0 z"></path></g></svg>