<svg width="368" height="60" viewBox="0 0 368 60" fill="none" xmlns="http://www.w3.org/2000/svg">
<rect width="368" height="60" rx="30" fill="#6BEF2A"/>
<path d="M33.808 26.56V23.2H21.016V40H24.712V33.496H32.728V30.136H24.712V26.56H33.808ZM53.878 31.6V31.552C53.878 26.776 50.158 22.912 44.974 22.912C39.79 22.912 36.022 26.824 36.022 31.6V31.648C36.022 36.424 39.742 40.288 44.926 40.288C50.11 40.288 53.878 36.376 53.878 31.6ZM50.014 31.648C50.014 34.528 47.95 36.88 44.974 36.88C41.998 36.88 39.886 34.48 39.886 31.6V31.552C39.886 28.672 41.95 26.32 44.926 26.32C47.902 26.32 50.014 28.72 50.014 31.6V31.648ZM74.2686 31.6V31.552C74.2686 26.776 70.5486 22.912 65.3646 22.912C60.1806 22.912 56.4126 26.824 56.4126 31.6V31.648C56.4126 36.424 60.1326 40.288 65.3166 40.288C70.5006 40.288 74.2686 36.376 74.2686 31.6ZM70.4046 31.648C70.4046 34.528 68.3406 36.88 65.3646 36.88C62.3886 36.88 60.2766 34.48 60.2766 31.6V31.552C60.2766 28.672 62.3406 26.32 65.3166 26.32C68.2926 26.32 70.4046 28.72 70.4046 31.6V31.648ZM89.5407 26.608V23.2H75.6207V26.608H80.7327V40H84.4287V26.608H89.5407ZM106.663 35.392V35.344C106.663 33.088 105.463 31.96 103.519 31.216C104.719 30.544 105.727 29.488 105.727 27.592V27.544C105.727 24.904 103.615 23.2 100.183 23.2H92.3832V40H100.375C104.167 40 106.663 38.464 106.663 35.392ZM102.055 28.216C102.055 29.464 101.023 29.992 99.3912 29.992H95.9832V26.44H99.6312C101.191 26.44 102.055 27.064 102.055 28.168V28.216ZM102.991 34.936C102.991 36.184 102.007 36.76 100.375 36.76H95.9832V33.064H100.255C102.151 33.064 102.991 33.76 102.991 34.888V34.936ZM126.072 40L118.872 23.08H115.464L108.264 40H112.032L113.568 36.232H120.672L122.208 40H126.072ZM119.352 32.968H114.888L117.12 27.52L119.352 32.968ZM140.736 40V36.64H132.36V23.2H128.664V40H140.736ZM155.596 40V36.64H147.22V23.2H143.524V40H155.596Z" fill="black"/>
<path d="M220.304 40L213.152 30.328L219.992 23.2H215.528L208.712 30.544V23.2H205.016V40H208.712V34.864L210.656 32.848L215.864 40H220.304ZM237.475 40V23.2H233.827V33.544L225.955 23.2H222.547V40H226.195V29.32L234.331 40H237.475ZM258.62 31.6V31.552C258.62 26.776 254.9 22.912 249.716 22.912C244.532 22.912 240.764 26.824 240.764 31.6V31.648C240.764 36.424 244.484 40.288 249.668 40.288C254.852 40.288 258.62 36.376 258.62 31.6ZM254.756 31.648C254.756 34.528 252.692 36.88 249.716 36.88C246.74 36.88 244.628 34.48 244.628 31.6V31.552C244.628 28.672 246.692 26.32 249.668 26.32C252.644 26.32 254.756 28.72 254.756 31.6V31.648ZM276.659 37.288L274.307 34.912C272.987 36.112 271.811 36.88 269.891 36.88C267.011 36.88 265.019 34.48 265.019 31.6V31.552C265.019 28.672 267.059 26.32 269.891 26.32C271.571 26.32 272.891 27.04 274.187 28.216L276.539 25.504C274.979 23.968 273.083 22.912 269.915 22.912C264.755 22.912 261.155 26.824 261.155 31.6V31.648C261.155 36.472 264.827 40.288 269.771 40.288C273.011 40.288 274.931 39.136 276.659 37.288ZM294.906 40L287.754 30.328L294.594 23.2H290.13L283.314 30.544V23.2H279.618V40H283.314V34.864L285.258 32.848L290.466 40H294.906ZM312.948 31.6V31.552C312.948 26.776 309.228 22.912 304.044 22.912C298.86 22.912 295.092 26.824 295.092 31.6V31.648C295.092 36.424 298.812 40.288 303.996 40.288C309.18 40.288 312.948 36.376 312.948 31.6ZM309.084 31.648C309.084 34.528 307.02 36.88 304.044 36.88C301.068 36.88 298.956 34.48 298.956 31.6V31.552C298.956 28.672 301.02 26.32 303.996 26.32C306.972 26.32 309.084 28.72 309.084 31.6V31.648ZM330.603 32.68V23.2H326.907V32.824C326.907 35.488 325.539 36.856 323.283 36.856C321.027 36.856 319.659 35.44 319.659 32.704V23.2H315.963V32.8C315.963 37.744 318.723 40.264 323.235 40.264C327.747 40.264 330.603 37.768 330.603 32.68ZM347.088 26.608V23.2H333.168V26.608H338.28V40H341.976V26.608H347.088Z" fill="black"/>
<path d="M193.25 19.4C190.984 18.7952 188.77 18.0094 186.63 17.05C184.524 16.1366 182.492 15.0635 180.55 13.84L180 13.5L179.46 13.85C177.518 15.0735 175.486 16.1466 173.38 17.06C171.236 18.0164 169.019 18.799 166.75 19.4L166 19.59V27.93C166 41.32 179.53 46.33 179.66 46.38L180 46.5L180.34 46.38C180.48 46.38 194 41.33 194 27.93V19.59L193.25 19.4Z" fill="black"/>
<path d="M180 21.6875C175.968 21.6875 172.688 24.9679 172.688 29C172.688 33.0321 175.968 36.3125 180 36.3125C184.032 36.3125 187.312 33.0321 187.312 29C187.312 24.9679 184.032 21.6875 180 21.6875ZM184.944 32.0966H183.3L182.706 31.077L183.234 28.9522L184.282 28.5078L185.781 29.7984C185.669 30.6152 185.384 31.3987 184.944 32.0966V32.0966ZM175.718 28.5078L176.766 28.9532L177.293 31.0781L176.699 32.0976H175.056C174.617 31.4001 174.331 30.617 174.219 29.8005L175.718 28.5078ZM184.475 25.2569L183.827 27.0966L182.733 27.56L180.738 25.8873V24.6568L182.28 23.6295C183.13 23.992 183.882 24.55 184.475 25.258V25.2569ZM177.72 23.6281L179.262 24.6554V25.8859L177.267 27.5596L176.173 27.0963L175.525 25.2566C176.118 24.5486 176.87 23.9906 177.72 23.6281V23.6281ZM178.649 34.6777L177.943 32.8967L178.505 31.9296H181.493L182.058 32.8974L181.355 34.6763C180.465 34.8882 179.538 34.8882 178.648 34.6763L178.649 34.6777Z" fill="#6BEF2A"/>
</svg>
