<?xml version="1.0" standalone="no"?>
<!DOCTYPE svg PUBLIC "-//W3C//DTD SVG 20010904//EN"
 "http://www.w3.org/TR/2001/REC-SVG-20010904/DTD/svg10.dtd">
<svg version="1.0" xmlns="http://www.w3.org/2000/svg"
 width="260.000000pt" height="260.000000pt" viewBox="0 0 260.000000 260.000000"
 preserveAspectRatio="xMidYMid meet">
<metadata>
Created by potrace 1.14, written by Peter Selinger 2001-2017
</metadata>
<g transform="translate(0.000000,260.000000) scale(0.100000,-0.100000)"
fill="#000000" stroke="none">
<path d="M0 1300 l0 -1300 1300 0 1300 0 0 1300 0 1300 -1300 0 -1300 0 0
-1300z m960 310 l0 -130 -155 0 -155 0 0 -70 0 -70 135 0 135 0 0 -120 0 -120
-135 0 -135 0 0 -130 0 -130 -140 0 -140 0 0 450 0 450 295 0 295 0 0 -130z
m390 -40 l5 -165 85 130 c47 72 96 147 109 168 l23 37 160 0 160 0 -17 -27
c-10 -16 -76 -110 -147 -211 -71 -101 -131 -188 -133 -195 -3 -7 67 -113 155
-236 88 -124 160 -226 160 -228 0 -2 -77 -3 -170 -3 l-170 0 -108 163 -107
162 -3 -162 -2 -163 -140 0 -140 0 0 450 0 451 138 -3 137 -3 5 -165z m810
-479 c111 -80 84 -232 -48 -270 -45 -13 -101 3 -139 41 -100 101 -14 272 127
252 19 -3 46 -13 60 -23z"/>
</g>
</svg>
